<svg width="62" height="63" viewBox="0 0 62 63" fill="none" xmlns="http://www.w3.org/2000/svg">
<path d="M60.4958 12.9594C58.3735 13.9306 56.0936 14.5869 53.6968 14.8835C56.1698 13.3552 58.02 10.9499 58.9021 8.11627C56.5787 9.54162 54.0357 10.5449 51.3839 11.0825C49.6006 9.11605 47.2386 7.81263 44.6645 7.37464C42.0905 6.93666 39.4485 7.3886 37.1486 8.66031C34.8488 9.93202 33.0198 11.9523 31.9456 14.4076C30.8714 16.8629 30.6122 19.6157 31.2081 22.2388C26.5002 21.9946 21.8945 20.7308 17.6901 18.5294C13.4856 16.328 9.77639 13.2381 6.80304 9.46028C5.78638 11.2715 5.20179 13.3715 5.20179 15.608C5.20066 17.6214 5.68073 19.6039 6.5994 21.3797C7.51808 23.1555 8.84695 24.6696 10.4681 25.7878C8.588 25.726 6.74935 25.2013 5.10521 24.2574V24.4149C5.10502 27.2387 6.05079 29.9756 7.78205 32.1613C9.51331 34.3469 11.9234 35.8466 14.6034 36.4059C12.8593 36.8934 11.0307 36.9652 9.25575 36.6159C10.0119 39.0456 11.4848 41.1703 13.4682 42.6926C15.4517 44.2148 17.8464 45.0584 20.3171 45.1052C16.1229 48.5056 10.9431 50.3501 5.611 50.342C4.66647 50.3423 3.72274 50.2853 2.78467 50.1714C8.19709 53.7655 14.4975 55.6729 20.9322 55.6655C42.7143 55.6655 54.622 37.0333 54.622 20.8738C54.622 20.3488 54.6093 19.8185 54.5864 19.2935C56.9026 17.5636 58.9019 15.4214 60.4907 12.9673L60.4958 12.9594Z" fill="#FAFAFA"/>
</svg>
