<svg width="74" height="63" viewBox="0 0 74 63" fill="none" xmlns="http://www.w3.org/2000/svg">
<path fill-rule="evenodd" clip-rule="evenodd" d="M23.1092 2.79825C26.6771 2.6565 27.8147 2.625 36.9032 2.625C45.9917 2.625 47.1292 2.65912 50.6941 2.79825C54.2589 2.93737 56.6922 3.42825 58.8214 4.13962C61.0509 4.86675 63.0737 6.00337 64.7466 7.47337C66.4499 8.9145 67.7639 10.6575 68.6034 12.5842C69.4307 14.4217 69.9965 16.5217 70.1607 19.593C70.325 22.6774 70.3615 23.6591 70.3615 31.5C70.3615 39.3435 70.3219 40.3252 70.1607 43.4044C69.9995 46.4756 69.4307 48.5756 68.6034 50.4131C67.7639 52.3401 66.4477 54.086 64.7466 55.5292C63.0737 56.9992 61.0509 58.1332 58.8214 58.8577C56.6922 59.5717 54.2589 60.06 50.7002 60.2017C47.1292 60.3435 45.9917 60.375 36.9032 60.375C27.8147 60.375 26.6771 60.3409 23.1092 60.2017C19.5504 60.0626 17.1171 59.5717 14.9879 58.8577C12.7551 58.1331 10.7321 56.9973 9.05974 55.5292C7.35756 54.0873 6.04032 52.3422 5.19987 50.4157C4.37557 48.5782 3.80982 46.4782 3.64557 43.407C3.48132 40.3226 3.44482 39.3409 3.44482 31.5C3.44482 23.6565 3.48437 22.6747 3.64557 19.5982C3.80678 16.5217 4.37557 14.4217 5.19987 12.5842C6.04156 10.6577 7.35981 8.9127 9.06278 7.47075C10.7328 6.00207 12.7538 4.86529 14.9849 4.13962C17.1141 3.42825 19.5474 2.94 23.1062 2.79825H23.1092ZM50.4234 7.99575C46.895 7.85662 45.8365 7.82775 36.9032 7.82775C27.9698 7.82775 26.9113 7.85662 23.3829 7.99575C20.1192 8.12437 18.349 8.59425 17.1688 8.99062C15.6084 9.51562 14.4922 10.1377 13.3211 11.1484C12.211 12.0804 11.3567 13.215 10.8209 14.469C10.3616 15.4875 9.81712 17.0152 9.66807 19.8319C9.50687 22.8769 9.47341 23.7904 9.47341 31.5C9.47341 39.2096 9.50687 40.1231 9.66807 43.1681C9.81712 45.9847 10.3616 47.5125 10.8209 48.531C11.3562 49.7831 12.2109 50.9197 13.3211 51.8516C14.4009 52.8097 15.7179 53.5474 17.1688 54.0094C18.349 54.4057 20.1192 54.8756 23.3829 55.0042C26.9113 55.1434 27.9667 55.1722 36.9032 55.1722C45.8396 55.1722 46.895 55.1434 50.4234 55.0042C53.6871 54.8756 55.4573 54.4057 56.6375 54.0094C58.1979 53.4844 59.3142 52.8622 60.4852 51.8516C61.5954 50.9197 62.4501 49.7831 62.9854 48.531C63.4447 47.5125 63.9892 45.9847 64.1382 43.1681C64.2994 40.1231 64.3329 39.2096 64.3329 31.5C64.3329 23.7904 64.2994 22.8769 64.1382 19.8319C63.9892 17.0152 63.4447 15.4875 62.9854 14.469C62.3771 13.1224 61.6562 12.159 60.4852 11.1484C59.4052 10.1904 58.0905 9.45318 56.6375 8.99062C55.4573 8.59425 53.6871 8.12437 50.4234 7.99575ZM32.6296 40.4014C35.0163 41.2588 37.6739 41.3745 40.1484 40.7288C42.6229 40.083 44.761 38.7159 46.1973 36.8609C47.6336 35.0059 48.2792 32.778 48.0236 30.5579C47.7681 28.3378 46.6274 26.2631 44.7963 24.6881C43.629 23.6814 42.2176 22.9105 40.6637 22.431C39.1097 21.9515 37.452 21.7753 35.8097 21.9151C34.1674 22.0549 32.5814 22.5072 31.166 23.2395C29.7505 23.9717 28.5408 24.9657 27.624 26.1499C26.7071 27.334 26.1058 28.6789 25.8635 30.0876C25.6211 31.4964 25.7437 32.934 26.2225 34.297C26.7012 35.6599 27.5241 36.9143 28.632 37.9699C29.7399 39.0254 31.1052 39.8559 32.6296 40.4014ZM24.7426 21.0052C26.3395 19.6271 28.2354 18.5338 30.3219 17.7879C32.4084 17.0421 34.6447 16.6582 36.9032 16.6582C39.1616 16.6582 41.3979 17.0421 43.4844 17.7879C45.5709 18.5338 47.4668 19.6271 49.0637 21.0052C50.6607 22.3834 51.9275 24.0196 52.7917 25.8203C53.656 27.621 54.1008 29.5509 54.1008 31.5C54.1008 33.4491 53.656 35.379 52.7917 37.1797C51.9275 38.9804 50.6607 40.6166 49.0637 41.9947C45.8386 44.7781 41.4643 46.3418 36.9032 46.3418C32.3421 46.3418 27.9678 44.7781 24.7426 41.9947C21.5174 39.2114 19.7055 35.4363 19.7055 31.5C19.7055 27.5637 21.5174 23.7886 24.7426 21.0052ZM57.915 18.8685C58.3107 18.5463 58.6275 18.1589 58.8467 17.7292C59.0658 17.2994 59.1828 16.8361 59.1907 16.3667C59.1986 15.8972 59.0974 15.4312 58.8928 14.9961C58.6883 14.5611 58.3847 14.1658 58 13.8339C57.6153 13.5019 57.1574 13.2399 56.6533 13.0634C56.1492 12.8869 55.6091 12.7994 55.0652 12.8063C54.5212 12.8131 53.9843 12.9141 53.4864 13.1032C52.9885 13.2923 52.5395 13.5657 52.1662 13.9072C51.4402 14.5715 51.0427 15.4537 51.0582 16.3667C51.0736 17.2797 51.5007 18.1516 52.2488 18.7972C52.997 19.4429 54.0072 19.8115 55.0652 19.8248C56.1231 19.8381 57.1454 19.4951 57.915 18.8685Z" fill="#FAFAFA"/>
</svg>
