<svg width="64" height="63" viewBox="0 0 64 63" fill="none" xmlns="http://www.w3.org/2000/svg">
<g clip-path="url(#clip0_179_3041)">
<path fill-rule="evenodd" clip-rule="evenodd" d="M0.40332 31.6759C0.40332 47.3366 11.7774 60.3592 26.6533 63V40.2491H18.7783V31.5H26.6533V24.4991C26.6533 16.6241 31.7274 12.2509 38.9042 12.2509C41.1774 12.2509 43.6292 12.6 45.9024 12.9491V21H41.8783C38.0274 21 37.1533 22.9241 37.1533 25.3759V31.5H45.5533L44.1542 40.2491H37.1533V63C52.0292 60.3592 63.4033 47.3393 63.4033 31.6759C63.4033 14.2538 49.2283 0 31.9033 0C14.5783 0 0.40332 14.2538 0.40332 31.6759Z" fill="#FAFAFA"/>
</g>
<defs>
<clipPath id="clip0_179_3041">
<rect width="63" height="63" fill="white" transform="translate(0.40332)"/>
</clipPath>
</defs>
</svg>
