<svg width="59" height="54" viewBox="0 0 59 54" fill="none" xmlns="http://www.w3.org/2000/svg">
<g filter="url(#filter0_d_179_3469)">
<path d="M54.3076 22.2069C54.3076 34.4714 48.6002 46 29.4397 46C14.5798 46 4.97949 34.4714 4.97949 22.2069C4.97949 9.94237 14.5798 0 29.4397 0C44.2996 0 54.3076 9.94237 54.3076 22.2069Z" fill="#3D388B" fill-opacity="0.45"/>
<path d="M18.7397 13.624C18.4636 13.624 18.2397 13.8479 18.2397 14.124C18.2397 14.4002 18.4636 14.624 18.7397 14.624L18.7397 13.624ZM21.8563 14.124L22.3353 13.9807C22.2719 13.769 22.0772 13.624 21.8563 13.624V14.124ZM38.6855 28.162C38.9616 28.162 39.1855 27.9381 39.1855 27.662C39.1855 27.3859 38.9616 27.162 38.6855 27.162V28.162ZM41.1787 16.2068L41.6577 16.3501C41.703 16.1988 41.6741 16.0349 41.5797 15.9082C41.4854 15.7815 41.3367 15.7068 41.1787 15.7068V16.2068ZM38.6855 24.5379V25.0379C38.9064 25.0379 39.1011 24.8929 39.1645 24.6812L38.6855 24.5379ZM18.7397 14.624H21.8563L21.8563 13.624H18.7397L18.7397 14.624ZM21.3773 14.2674L22.0006 16.3501L22.9586 16.0634L22.3353 13.9807L21.3773 14.2674ZM22.0006 16.3501L24.4938 24.6812L25.4518 24.3945L22.9586 16.0634L22.0006 16.3501ZM24.9728 24.0379H24.3495V25.0379H24.9728V24.0379ZM24.3495 28.162H38.6855V27.162H24.3495V28.162ZM21.9796 26.0999C21.9796 27.3192 23.1286 28.162 24.3495 28.162V27.162C23.5049 27.162 22.9796 26.606 22.9796 26.0999H21.9796ZM24.3495 24.0379C23.1286 24.0379 21.9796 24.8806 21.9796 26.0999H22.9796C22.9796 25.5938 23.5049 25.0379 24.3495 25.0379V24.0379ZM22.4796 16.7068H41.1787V15.7068H22.4796V16.7068ZM40.6997 16.0634L38.2064 24.3945L39.1645 24.6812L41.6577 16.3501L40.6997 16.0634ZM38.6855 24.0379H24.9728V25.0379H38.6855V24.0379ZM38.1855 31.8275C38.1855 32.0461 37.9392 32.3689 37.4389 32.3689V33.3689C38.3155 33.3689 39.1855 32.7593 39.1855 31.8275H38.1855ZM37.4389 32.3689C36.9385 32.3689 36.6922 32.0461 36.6922 31.8275H35.6922C35.6922 32.7593 36.5622 33.3689 37.4389 33.3689V32.3689ZM36.6922 31.8275C36.6922 31.609 36.9385 31.2862 37.4389 31.2862V30.2862C36.5622 30.2862 35.6922 30.8958 35.6922 31.8275H36.6922ZM37.4389 31.2862C37.9392 31.2862 38.1855 31.609 38.1855 31.8275H39.1855C39.1855 30.8958 38.3155 30.2862 37.4389 30.2862V31.2862ZM25.7194 31.8275C25.7194 32.0461 25.4731 32.3689 24.9728 32.3689V33.3689C25.8494 33.3689 26.7194 32.7593 26.7194 31.8275H25.7194ZM24.9728 32.3689C24.4724 32.3689 24.2262 32.0461 24.2262 31.8275H23.2262C23.2262 32.7593 24.0962 33.3689 24.9728 33.3689V32.3689ZM24.2262 31.8275C24.2262 31.609 24.4724 31.2862 24.9728 31.2862V30.2862C24.0962 30.2862 23.2262 30.8958 23.2262 31.8275H24.2262ZM24.9728 31.2862C25.4731 31.2862 25.7194 31.609 25.7194 31.8275H26.7194C26.7194 30.8958 25.8494 30.2862 24.9728 30.2862V31.2862Z" fill="#410179"/>
</g>
<defs>
<filter id="filter0_d_179_3469" x="0.979492" y="0" width="57.3281" height="54" filterUnits="userSpaceOnUse" color-interpolation-filters="sRGB">
<feFlood flood-opacity="0" result="BackgroundImageFix"/>
<feColorMatrix in="SourceAlpha" type="matrix" values="0 0 0 0 0 0 0 0 0 0 0 0 0 0 0 0 0 0 127 0" result="hardAlpha"/>
<feOffset dy="4"/>
<feGaussianBlur stdDeviation="2"/>
<feComposite in2="hardAlpha" operator="out"/>
<feColorMatrix type="matrix" values="0 0 0 0 0 0 0 0 0 0 0 0 0 0 0 0 0 0 0.25 0"/>
<feBlend mode="normal" in2="BackgroundImageFix" result="effect1_dropShadow_179_3469"/>
<feBlend mode="normal" in="SourceGraphic" in2="effect1_dropShadow_179_3469" result="shape"/>
</filter>
</defs>
</svg>
