<svg width="21" height="20" viewBox="0 0 21 20" fill="none" xmlns="http://www.w3.org/2000/svg">
<path d="M20.816 18.9258L14.4567 12.8125C15.7244 11.3672 16.3583 9.70052 16.3583 7.8125C16.3583 6.39323 15.9937 5.08464 15.2644 3.88672C14.5351 2.6888 13.5399 1.74154 12.279 1.04492C11.018 0.348307 9.648 0 8.16894 0C6.68987 0 5.32327 0.348307 4.06913 1.04492C2.815 1.74154 1.82327 2.6888 1.09396 3.88672C0.364654 5.08464 0 6.39323 0 7.8125C0 9.23177 0.364654 10.5404 1.09396 11.7383C1.82327 12.9362 2.815 13.8835 4.06913 14.5801C5.32327 15.2767 6.69328 15.625 8.17916 15.625C10.2103 15.625 11.9961 14.987 13.5365 13.7109L19.8754 19.8047C20.0117 19.9349 20.1685 20 20.3457 20C20.5229 20 20.6762 19.9382 20.8057 19.8145C20.9352 19.6908 21 19.541 21 19.3652C21 19.1895 20.9387 19.043 20.816 18.9258ZM8.17916 14.3945C6.92502 14.3945 5.76972 14.0983 4.71324 13.5059C3.65677 12.9134 2.82181 12.1126 2.20837 11.1035C1.59494 10.0944 1.28822 8.9974 1.28822 7.8125C1.28822 6.6276 1.59494 5.5306 2.20837 4.52148C2.82181 3.51237 3.65677 2.71159 4.71324 2.11914C5.76972 1.52669 6.92162 1.23047 8.16894 1.23047C9.41626 1.23047 10.5682 1.52669 11.6246 2.11914C12.6811 2.71159 13.5161 3.51237 14.1295 4.52148C14.7429 5.5306 15.0497 6.6276 15.0497 7.8125C15.0497 8.32031 14.9883 8.82161 14.8656 9.31641C14.7429 9.8112 14.5691 10.2734 14.3442 10.7031C14.1193 11.1328 13.85 11.5397 13.5365 11.9238C13.223 12.3079 12.8685 12.6497 12.4732 12.9492C12.0779 13.2487 11.6553 13.5059 11.2055 13.7207C10.7556 13.9355 10.2717 14.1016 9.75365 14.2188C9.23564 14.3359 8.71081 14.3945 8.17916 14.3945Z" fill="#410179"/>
</svg>
